<svg xmlns="http://www.w3.org/2000/svg" viewBox="0 0 26 26">
    <path d="M 25 13 C 25 6.398438 19.601563 1 13 1 C 6.398438 1 1 6.398438 1 13 C 1 19.601563 6.398438 25 13 25 C 19.601563 25 25 19.601563 25 13 Z M 11.800781 18.601563 C 8.898438 16.601563 6.199219 13.601563 6.101563 13.398438 C 6.101563 13.300781 6 13.199219 6 13 C 6 12.800781 6.101563 12.699219 6.199219 12.5 C 6.300781 12.398438 9 9.300781 11.898438 7.300781 C 12.101563 7.101563 12.398438 7.101563 12.699219 7.300781 C 12.800781 7.5 13 7.699219 13 8 L 13 10.601563 C 13 10.601563 19.101563 10.898438 19.398438 11.101563 C 19.800781 11.398438 20 12.300781 20 13 C 20 13.699219 19.699219 14.5 19.398438 14.800781 C 19.101563 15 13 15.398438 13 15.398438 L 13 18 C 13 18.300781 12.898438 18.5 12.601563 18.601563 C 12.398438 18.800781 12.101563 18.800781 11.800781 18.601563 Z "></path>
</svg>