<svg xmlns="http://www.w3.org/2000/svg" viewBox="0 0 26 26">
    <path d="M 2 3 C 0.894531 3 0 3.894531 0 5 C 0 5.738281 1.15625 7.058594 1.15625 8 C 1.15625 8.941406 0 10.921875 0 13 C 0 15.078125 1.15625 16.992188 1.15625 18 C 1.15625 19.007813 0 20.261719 0 21 C 0 22.105469 0.894531 23 2 23 C 2.738281 23 5.125 21.875 6.5 21.875 C 7.875 21.875 8.394531 23 9.5 23 C 10.605469 23 11.632813 21.875 13 21.875 C 14.367188 21.875 14.894531 23 16 23 C 17.105469 23 18.5625 21.875 19.5 21.875 C 20.4375 21.875 23.261719 23 24 23 C 25.105469 23 26 22.105469 26 21 C 26 20.261719 24.84375 18.941406 24.84375 18 C 24.84375 17.058594 26 14.949219 26 13 C 26 11.050781 24.84375 9.007813 24.84375 8 C 24.84375 6.992188 26 5.738281 26 5 C 26 3.894531 25.105469 3 24 3 C 23.261719 3 20.875 4.15625 19.5 4.15625 C 18.125 4.15625 17.605469 3 16.5 3 C 15.394531 3 14.367188 4.15625 13 4.15625 C 11.632813 4.15625 11.105469 3 10 3 C 8.894531 3 7.4375 4.15625 6.5 4.15625 C 5.5625 4.15625 2.738281 3 2 3 Z M 4 6 L 22 6 C 22.550781 6 23 6.449219 23 7 L 23 19 C 23 19.550781 22.550781 20 22 20 L 4 20 C 3.449219 20 3 19.550781 3 19 L 3 7 C 3 6.449219 3.449219 6 4 6 Z M 16 8 C 14.894531 8 14 8.894531 14 10 C 14 11.105469 14.894531 12 16 12 C 17.105469 12 18 11.105469 18 10 C 18 8.894531 17.105469 8 16 8 Z M 9 11 C 7.417969 11 5.1875 16.9375 5.1875 16.9375 C 4.8125 17.546875 5.398438 18 5.875 18 L 20 18 C 20.585938 18 21.351563 17.671875 20.84375 17.25 C 20.84375 17.25 18.371094 14 17 14 C 15.628906 14 15.308594 15.28125 14.09375 15.28125 C 11.960938 15.28125 10.582031 11 9 11 Z "></path>
</svg>