<svg viewBox="0 0 24 24"><path d="M4.8 3C3.8 3 3 3.8 3 4.8v8.1c0 1 .8 1.8 1.8 1.8h.9v1.8l1.8 1.8h1.8v.9c0 1 .8 1.8 1.8 1.8h8.1c1 0 1.8-.8 1.8-1.8v-8.1c0-1-.8-1.8-1.8-1.8h-4.5V4.8c0-1-.8-1.8-1.8-1.8H4.8Zm0 1.8h8.1v4.5h-1.8c-.6 0-1.1.29-1.43.73l-.4-.3a9.56 9.56 0 0 0 1.6-2.23H12v-.9H9.3v-.9h-.9v.9H5.7v.9h1.01c-.1.12-.14.3-.08.45 0 0 .15.46.62 1.07.17.22.4.47.67.73-1.03.88-1.91 1.27-1.91 1.27a.45.45 0 0 0 .34.84s1.07-.44 2.28-1.5c.2.17.44.32.7.49-.01.08-.03.16-.03.25v1.8H4.8V4.8Zm2.59 2.7H9.8c-.39.65-.8 1.2-1.24 1.66a5.93 5.93 0 0 1-.62-.68c-.4-.5-.45-.78-.45-.78a.48.48 0 0 0-.11-.2Zm7.17 4.5h1.18l2.56 7.2h-1.04l-.68-1.97h-2.92L13 19.2H12l2.56-7.2Zm.53.82c-.1.42-1.15 3.68-1.15 3.68h2.4s-1.1-3.27-1.22-3.68h-.03ZM7.5 14.7h1.8v1.8H7.5v-1.8Z"/></svg>