<svg viewBox="0 0 24 24"><path d="M5.6 4C4.72 4 4 4.72 4 5.6v7.2c0 .88.72 1.6 1.6 1.6h.8V16L8 17.6h1.6v.8c0 .88.72 1.6 1.6 1.6h7.2c.88 0 1.6-.72 1.6-1.6v-7.2c0-.88-.72-1.6-1.6-1.6h-4v-4c0-.88-.72-1.6-1.6-1.6H5.6Zm0 1.6h7.2v4h-1.6c-.53 0-.98.26-1.27.65-.13-.09-.24-.2-.36-.28A8.5 8.5 0 0 0 11 8h1v-.8H9.6v-.8h-.8v.8H6.4V8h.9a.4.4 0 0 0-.08.4s.14.4.56.95c.14.2.35.42.6.65a7.83 7.83 0 0 1-1.7 1.13.4.4 0 0 0 .3.74s.95-.39 2.02-1.32c.19.14.4.28.63.42-.01.08-.03.15-.03.23v1.6h-4V5.6ZM7.9 8h2.15a7.84 7.84 0 0 1-1.1 1.47 5.27 5.27 0 0 1-.55-.6c-.35-.45-.4-.7-.4-.7A.43.43 0 0 0 7.9 8Zm6.38 4h1.04l2.28 6.4h-.93l-.6-1.75h-2.6l-.57 1.75H12l2.28-6.4Zm.47.72c-.1.39-1.03 3.28-1.03 3.28h2.13s-.97-2.9-1.07-3.28h-.03ZM8 14.4h1.6V16H8v-1.6Z"/></svg>