<svg viewBox="0 0 16 16"><path d="M1.6 3.2a1.6 1.6 0 1 0 0-3.2 1.6 1.6 0 0 0 0 3.2Z"/><path stroke="#181C1F" stroke-width=".13" d="M9.54 1.6a1.54 1.54 0 1 1-3.08 0 1.54 1.54 0 0 1 3.08 0Z"/><path d="M14.4 3.2a1.6 1.6 0 1 0 0-3.2 1.6 1.6 0 0 0 0 3.2ZM1.6 9.6a1.6 1.6 0 1 0 0-3.2 1.6 1.6 0 0 0 0 3.2ZM8 9.6a1.6 1.6 0 1 0 0-3.2 1.6 1.6 0 0 0 0 3.2ZM14.4 9.6a1.6 1.6 0 1 0 0-3.2 1.6 1.6 0 0 0 0 3.2ZM1.6 16a1.6 1.6 0 1 0 0-3.2 1.6 1.6 0 0 0 0 3.2ZM8 16a1.6 1.6 0 1 0 0-3.2A1.6 1.6 0 0 0 8 16ZM14.4 16a1.6 1.6 0 1 0 0-3.2 1.6 1.6 0 0 0 0 3.2Z"/></svg>