<svg viewBox="0 0 24 24"><path d="m10.1 4-.4 2.02a6.5 6.5 0 0 0-1.83 1.03L5.9 6.38 4 9.62l1.58 1.35a6.3 6.3 0 0 0 0 2.06L4 14.38l1.9 3.24 1.97-.67a6.5 6.5 0 0 0 1.83 1.03l.4 2.02h3.8l.4-2.02a6.5 6.5 0 0 0 1.83-1.03l1.97.67 1.9-3.24-1.58-1.35a6.3 6.3 0 0 0 0-2.06L20 9.62l-1.9-3.24-1.97.67a6.5 6.5 0 0 0-1.83-1.03L13.9 4h-3.8Zm1.34 1.6h1.12l.31 1.6.85.32c.52.19.97.45 1.37.77l.7.56 1.57-.53.56.95-1.25 1.07.14.88a4.73 4.73 0 0 1 0 1.56l-.14.88 1.25 1.06-.56.96-1.56-.53-.7.56c-.4.32-.86.58-1.38.77l-.85.32-.31 1.6h-1.12l-.31-1.6-.85-.32a4.86 4.86 0 0 1-1.37-.77l-.7-.56-1.57.53-.56-.95 1.25-1.07-.14-.88a4.84 4.84 0 0 1 0-1.56l.14-.88-1.25-1.06.56-.96 1.56.53.7-.56c.4-.32.86-.58 1.38-.77l.85-.32.31-1.6ZM12 8.8A3.24 3.24 0 0 0 8.74 12c0 1.76 1.47 3.2 3.26 3.2a3.24 3.24 0 0 0 3.26-3.2c0-1.76-1.47-3.2-3.26-3.2Zm0 1.6c.9 0 1.63.71 1.63 1.6 0 .89-.73 1.6-1.63 1.6a1.6 1.6 0 0 1-1.63-1.6c0-.89.73-1.6 1.63-1.6Z"/></svg>