<svg xmlns="http://www.w3.org/2000/svg" viewBox="-1 -1 28 28">
    <path d="M 13 0 C 5.832031 0 0 5.832031 0 13 C 0 20.167969 5.832031 26 13 26 C 20.167969 26 26 20.167969 26 13 C 26 5.832031 20.167969 0 13 0 Z M 12 2.25 L 12 6 L 9.21875 6 C 9.359375 5.636719 9.496094 5.289063 9.65625 4.96875 C 10.363281 3.554688 11.183594 2.65625 12 2.25 Z M 14 2.25 C 14.816406 2.65625 15.636719 3.554688 16.34375 4.96875 C 16.503906 5.289063 16.640625 5.636719 16.78125 6 L 14 6 Z M 8.5 2.96875 C 8.277344 3.316406 8.066406 3.675781 7.875 4.0625 C 7.578125 4.660156 7.328125 5.3125 7.09375 6 L 4.5 6 C 5.570313 4.703125 6.945313 3.664063 8.5 2.96875 Z M 17.5 2.96875 C 19.054688 3.664063 20.429688 4.703125 21.5 6 L 18.90625 6 C 18.671875 5.3125 18.421875 4.660156 18.125 4.0625 C 17.933594 3.675781 17.722656 3.316406 17.5 2.96875 Z M 3.1875 8 L 6.53125 8 C 6.257813 9.25 6.089844 10.59375 6.03125 12 L 2.03125 12 C 2.15625 10.566406 2.566406 9.21875 3.1875 8 Z M 8.59375 8 L 12 8 L 12 12 L 8.03125 12 C 8.097656 10.566406 8.296875 9.21875 8.59375 8 Z M 14 8 L 17.40625 8 C 17.703125 9.21875 17.902344 10.566406 17.96875 12 L 14 12 Z M 19.46875 8 L 22.8125 8 C 23.433594 9.21875 23.84375 10.566406 23.96875 12 L 19.96875 12 C 19.910156 10.59375 19.742188 9.25 19.46875 8 Z M 2.0625 14 L 6.03125 14 C 6.085938 15.410156 6.257813 16.75 6.53125 18 L 3.1875 18 C 2.5625 16.777344 2.191406 15.4375 2.0625 14 Z M 8.03125 14 L 12 14 L 12 18 L 8.59375 18 C 8.296875 16.78125 8.09375 15.433594 8.03125 14 Z M 14 14 L 17.96875 14 C 17.90625 15.433594 17.703125 16.78125 17.40625 18 L 14 18 Z M 19.96875 14 L 23.9375 14 C 23.808594 15.4375 23.4375 16.777344 22.8125 18 L 19.46875 18 C 19.742188 16.75 19.914063 15.410156 19.96875 14 Z M 4.5 20 L 7.09375 20 C 7.328125 20.6875 7.578125 21.339844 7.875 21.9375 C 8.066406 22.324219 8.277344 22.683594 8.5 23.03125 C 6.945313 22.335938 5.570313 21.292969 4.5 20 Z M 9.21875 20 L 12 20 L 12 23.75 C 11.183594 23.34375 10.363281 22.445313 9.65625 21.03125 C 9.496094 20.710938 9.359375 20.363281 9.21875 20 Z M 14 20 L 16.78125 20 C 16.640625 20.363281 16.503906 20.710938 16.34375 21.03125 C 15.636719 22.445313 14.816406 23.34375 14 23.75 Z M 18.90625 20 L 21.5 20 C 20.429688 21.292969 19.054688 22.335938 17.5 23.03125 C 17.722656 22.683594 17.933594 22.324219 18.125 21.9375 C 18.421875 21.339844 18.671875 20.6875 18.90625 20 Z "></path>
</svg>