<svg viewBox="0 0 16 16"><path d="M8 2.67a5.34 5.34 0 1 0 .01 10.68A5.34 5.34 0 0 0 8 2.67Zm3.69 3.2h-1.23a6.84 6.84 0 0 0-.56-1.69 4.3 4.3 0 0 1 1.79 1.69ZM12.27 8c0 .37-.06.72-.14 1.07h-1.51a11.48 11.48 0 0 0 0-2.14h1.5c.1.35.15.7.15 1.07ZM8 12.27c-.45 0-1.04-.8-1.36-2.14h2.72c-.32 1.35-.91 2.14-1.36 2.14Zm-1.54-3.2a10.03 10.03 0 0 1 0-2.14h3.08a10.03 10.03 0 0 1 0 2.14H6.46ZM3.73 8c0-.37.05-.72.14-1.07h1.51a11.48 11.48 0 0 0 0 2.14h-1.5c-.1-.35-.15-.7-.15-1.07ZM8 3.73c.45 0 1.04.8 1.36 2.14H6.64c.32-1.35.91-2.14 1.36-2.14Zm-1.9.45a6.84 6.84 0 0 0-.56 1.69H4.31a4.3 4.3 0 0 1 1.8-1.69Zm-1.79 5.95h1.23c.13.64.32 1.21.56 1.69a4.3 4.3 0 0 1-1.79-1.69Zm5.59 1.69c.24-.48.43-1.05.56-1.69h1.23a4.3 4.3 0 0 1-1.8 1.69Z"/></svg>