<svg xmlns="http://www.w3.org/2000/svg" viewBox="0 0 26 26"><path d="M 17.375 0.125 C 17.34375 0.132813 17.335938 0.136719 17.3125 0.1875 C 17.113281 0.886719 16.488281 2.695313 16.1875 3.59375 C 7.585938 2.09375 4.507813 8.894531 3.90625 10.59375 C 3.804688 10.792969 3.792969 10.792969 4.09375 10.59375 C 4.992188 9.792969 8 7.414063 11.5 7.3125 C 13.898438 7.3125 15.1875 8 15.1875 8 L 14.09375 11.8125 C 14.09375 11.8125 14.011719 12.007813 14.3125 11.90625 C 15.710938 11.207031 22.292969 8.195313 22.59375 8.09375 C 22.792969 7.992188 22.6875 7.8125 22.6875 7.8125 L 17.59375 0.1875 C 17.59375 0.1875 17.472656 0.0976563 17.375 0.125 Z M 11.75 14.28125 C 11.71875 14.265625 11.667969 14.289063 11.59375 14.3125 C 11.292969 14.414063 3.40625 18.09375 3.40625 18.09375 C 3.40625 18.09375 3.304688 18.085938 3.40625 18.1875 C 3.507813 18.289063 7.699219 24.804688 8.5 25.90625 C 8.601563 26.007813 8.585938 26.007813 8.6875 25.90625 C 8.886719 25.304688 9.511719 23.304688 9.8125 22.40625 C 18.511719 23.90625 21.5 17 22 15.5 C 22.101563 15.300781 22.007813 15.304688 21.90625 15.40625 C 21.007813 16.207031 17.90625 18.804688 14.40625 18.90625 C 12.007813 19.007813 10.8125 18.1875 10.8125 18.1875 L 11.8125 14.5 C 11.8125 14.5 11.847656 14.324219 11.75 14.28125 Z "></path></svg>