<svg xmlns="http://www.w3.org/2000/svg" xmlns:xlink="http://www.w3.org/1999/xlink" viewBox="0 0 26 26" version="1.1"><g id="surface1"><path style=" " d="M 21 14.699219 C 18.199219 18.898438 13.800781 22.699219 13.601563 22.800781 C 13.5 22.898438 13.199219 23 13 23 C 12.800781 23 12.5 22.898438 12.300781 22.800781 C 12.101563 22.699219 7.699219 18.800781 4.898438 14.699219 C 4.699219 14.398438 4.699219 14 4.800781 13.601563 C 5.101563 13.199219 5.398438 13 5.800781 13 L 9.5 13 C 9.5 13 10 4.300781 10.300781 3.898438 C 10.699219 3.398438 11.898438 3 13 3 C 14.101563 3 15.199219 3.398438 15.601563 3.898438 C 15.898438 4.300781 16.5 13 16.5 13 L 20.199219 13 C 20.601563 13 20.898438 13.199219 21.101563 13.601563 C 21.300781 13.898438 21.199219 14.300781 21 14.699219 Z "></path></g></svg>