<svg xmlns="http://www.w3.org/2000/svg" viewBox="0 0 24 24">
  <path d="M 4 2 C 3.448 2 3 2.448 3 3 L 3 7 C 3 7.552 3.448 8 4 8 L 6 8 L 6 18 C 6 19.093063 6.9069372 20 8 20 L 13 20 L 13 20.5 C 13 21.317063 13.682937 22 14.5 22 L 19.5 22 C 20.317063 22 21 21.317063 21 20.5 L 21 17.5 C 21 16.682937 20.317063 16 19.5 16 L 14.5 16 C 13.682937 16 13 16.682937 13 17.5 L 13 18 L 8 18 L 8 12 L 13 12 L 13 12.5 C 13 13.317063 13.682937 14 14.5 14 L 19.5 14 C 20.317063 14 21 13.317063 21 12.5 L 21 9.5 C 21 8.6829372 20.317063 8 19.5 8 L 14.5 8 C 13.682937 8 13 8.6829372 13 9.5 L 13 10 L 8 10 L 8 8 L 10 8 C 10.552 8 11 7.552 11 7 L 11 3 C 11 2.448 10.552 2 10 2 L 4 2 z M 15 10 L 19 10 L 19 12 L 15 12 L 15 10 z M 15 18 L 19 18 L 19 20 L 15 20 L 15 18 z"></path>
</svg>