<svg xmlns="http://www.w3.org/2000/svg" viewBox="0 0 24 24">
  <path d="M 12 1.25 C 11.80825 1.25 11.617203 1.3242031 11.470703 1.4707031 L 9.2207031 3.7207031 C 9.0057031 3.9347031 8.9406406 4.2561094 9.0566406 4.5371094 C 9.1726406 4.8181094 9.447 5 9.75 5 L 11 5 L 11 7 L 4 7 A 1.0001 1.0001 0 1 0 4 9 L 20 9 A 1.0001 1.0001 0 1 0 20 7 L 13 7 L 13 5 L 14.25 5 C 14.553 5 14.827359 4.8181094 14.943359 4.5371094 C 14.981359 4.4441094 15 4.347 15 4.25 C 15 4.055 14.923297 3.8637031 14.779297 3.7207031 L 12.529297 1.4707031 C 12.382797 1.3242031 12.19175 1.25 12 1.25 z M 4 11 A 1.0001 1.0001 0 1 0 4 13 L 20 13 A 1.0001 1.0001 0 1 0 20 11 L 4 11 z M 4 15 A 1.0001 1.0001 0 1 0 4 17 L 11 17 L 11 19 L 9.75 19 C 9.447 19 9.1726406 19.181891 9.0566406 19.462891 C 9.0186406 19.555891 9 19.653 9 19.75 C 9 19.945 9.0767031 20.136297 9.2207031 20.279297 L 11.470703 22.529297 C 11.763703 22.822297 12.236297 22.822297 12.529297 22.529297 L 14.779297 20.279297 C 14.994297 20.064297 15.058359 19.743891 14.943359 19.462891 C 14.827359 19.181891 14.553 19 14.25 19 L 13 19 L 13 17 L 20 17 A 1.0001 1.0001 0 1 0 20 15 L 4 15 z"></path>
</svg>