<svg xmlns="http://www.w3.org/2000/svg" viewBox="0 0 24 24">
  <path d="M 4 3 C 3.448 3 3 3.448 3 4 L 3 6 C 3 6.552 3.448 7 4 7 L 6 7 C 6.552 7 7 6.552 7 6 L 7 4 C 7 3.448 6.552 3 6 3 L 4 3 z M 11 3 C 10.448 3 10 3.448 10 4 L 10 6 C 10 6.552 10.448 7 11 7 L 13 7 C 13.552 7 14 6.552 14 6 L 14 4 C 14 3.448 13.552 3 13 3 L 11 3 z M 18 3 C 17.448 3 17 3.448 17 4 L 17 6 C 17 6.552 17.448 7 18 7 L 20 7 C 20.552 7 21 6.552 21 6 L 21 4 C 21 3.448 20.552 3 20 3 L 18 3 z M 4 10 C 3.448 10 3 10.448 3 11 L 3 13 C 3 13.552 3.448 14 4 14 L 6 14 C 6.552 14 7 13.552 7 13 L 7 11 C 7 10.448 6.552 10 6 10 L 4 10 z M 11 10 C 10.448 10 10 10.448 10 11 L 10 13 C 10 13.552 10.448 14 11 14 L 13 14 C 13.552 14 14 13.552 14 13 L 14 11 C 14 10.448 13.552 10 13 10 L 11 10 z M 18 10 C 17.448 10 17 10.448 17 11 L 17 13 C 17 13.552 17.448 14 18 14 L 20 14 C 20.552 14 21 13.552 21 13 L 21 11 C 21 10.448 20.552 10 20 10 L 18 10 z M 4 17 C 3.448 17 3 17.448 3 18 L 3 20 C 3 20.552 3.448 21 4 21 L 6 21 C 6.552 21 7 20.552 7 20 L 7 18 C 7 17.448 6.552 17 6 17 L 4 17 z M 11 17 C 10.448 17 10 17.448 10 18 L 10 20 C 10 20.552 10.448 21 11 21 L 13 21 C 13.552 21 14 20.552 14 20 L 14 18 C 14 17.448 13.552 17 13 17 L 11 17 z M 18 17 C 17.448 17 17 17.448 17 18 L 17 20 C 17 20.552 17.448 21 18 21 L 20 21 C 20.552 21 21 20.552 21 20 L 21 18 C 21 17.448 20.552 17 20 17 L 18 17 z"></path>
</svg>