<svg width="24" height="24" viewBox="0 0 24 24" fill="black" xmlns="http://www.w3.org/2000/svg">
    <path d="M12.0001 3.20001C11.3636 3.20001 10.7531 3.45287 10.303 3.90296C9.85295 4.35304 9.6001 4.96349 9.6001 5.60001C9.6001 6.23653 9.85295 6.84698 10.303 7.29707C10.7531 7.74716 11.3636 8.00001 12.0001 8.00001C12.6366 8.00001 13.2471 7.74716 13.6972 7.29707C14.1472 6.84698 14.4001 6.23653 14.4001 5.60001C14.4001 4.96349 14.1472 4.35304 13.6972 3.90296C13.2471 3.45287 12.6366 3.20001 12.0001 3.20001V3.20001ZM12.0001 9.60001C11.3636 9.60001 10.7531 9.85287 10.303 10.303C9.85295 10.753 9.6001 11.3635 9.6001 12C9.6001 12.6365 9.85295 13.247 10.303 13.6971C10.7531 14.1472 11.3636 14.4 12.0001 14.4C12.6366 14.4 13.2471 14.1472 13.6972 13.6971C14.1472 13.247 14.4001 12.6365 14.4001 12C14.4001 11.3635 14.1472 10.753 13.6972 10.303C13.2471 9.85287 12.6366 9.60001 12.0001 9.60001V9.60001ZM12.0001 16C11.3636 16 10.7531 16.2529 10.303 16.703C9.85295 17.153 9.6001 17.7635 9.6001 18.4C9.6001 19.0365 9.85295 19.647 10.303 20.0971C10.7531 20.5472 11.3636 20.8 12.0001 20.8C12.6366 20.8 13.2471 20.5472 13.6972 20.0971C14.1472 19.647 14.4001 19.0365 14.4001 18.4C14.4001 17.7635 14.1472 17.153 13.6972 16.703C13.2471 16.2529 12.6366 16 12.0001 16V16Z" />
</svg>
