<svg xmlns="http://www.w3.org/2000/svg" viewBox="-2 -2 30 30">
    <path d="M 2.96875 2 L 5 4.03125 L 1.03125 7.96875 L 3 9.9375 L 6.9375 5.96875 L 9 8.03125 L 9 2 Z M 19 2 C 18.449219 2 18 2.449219 18 3 L 18 25 C 18 25.550781 18.449219 26 19 26 L 25 26 C 25.550781 26 26 25.550781 26 25 L 26 3 C 26 2.449219 25.550781 2 25 2 Z M 10 10 C 9.449219 10 9 10.449219 9 11 L 9 25 C 9 25.550781 9.449219 26 10 26 L 16 26 C 16.550781 26 17 25.550781 17 25 L 17 11 C 17 10.449219 16.550781 10 16 10 Z M 1 15 C 0.449219 15 0 15.449219 0 16 L 0 25 C 0 25.550781 0.449219 26 1 26 L 7 26 C 7.550781 26 8 25.550781 8 25 L 8 16 C 8 15.449219 7.550781 15 7 15 Z "></path>
</svg>