<svg width="26" height="26" viewBox="0 0 26 26" fill="white" xmlns="http://www.w3.org/2000/svg">
    <path d="M2.60002 6.06666C2.48517 6.06504 2.37115 6.08625 2.26458 6.12908C2.15801 6.1719 2.06101 6.23548 1.97922 6.31612C1.89744 6.39676 1.83249 6.49285 1.78816 6.59881C1.74384 6.70476 1.72101 6.81847 1.72101 6.93333C1.72101 7.04818 1.74384 7.16189 1.78816 7.26785C1.83249 7.3738 1.89744 7.46989 1.97922 7.55053C2.06101 7.63117 2.15801 7.69475 2.26458 7.73758C2.37115 7.7804 2.48517 7.80162 2.60002 7.79999H23.4C23.5149 7.80162 23.6289 7.7804 23.7355 7.73758C23.842 7.69475 23.939 7.63117 24.0208 7.55053C24.1026 7.46989 24.1675 7.3738 24.2119 7.26785C24.2562 7.16189 24.279 7.04818 24.279 6.93333C24.279 6.81847 24.2562 6.70476 24.2119 6.59881C24.1675 6.49285 24.1026 6.39676 24.0208 6.31612C23.939 6.23548 23.842 6.1719 23.7355 6.12908C23.6289 6.08625 23.5149 6.06504 23.4 6.06666H2.60002ZM2.60002 12.1333C2.48517 12.1317 2.37115 12.1529 2.26458 12.1957C2.15801 12.2386 2.06101 12.3021 1.97922 12.3828C1.89744 12.4634 1.83249 12.5595 1.78816 12.6655C1.74384 12.7714 1.72101 12.8851 1.72101 13C1.72101 13.1148 1.74384 13.2286 1.78816 13.3345C1.83249 13.4405 1.89744 13.5366 1.97922 13.6172C2.06101 13.6978 2.15801 13.7614 2.26458 13.8042C2.37115 13.8471 2.48517 13.8683 2.60002 13.8667H23.4C23.5149 13.8683 23.6289 13.8471 23.7355 13.8042C23.842 13.7614 23.939 13.6978 24.0208 13.6172C24.1026 13.5366 24.1675 13.4405 24.2119 13.3345C24.2562 13.2286 24.279 13.1148 24.279 13C24.279 12.8851 24.2562 12.7714 24.2119 12.6655C24.1675 12.5595 24.1026 12.4634 24.0208 12.3828C23.939 12.3021 23.842 12.2386 23.7355 12.1957C23.6289 12.1529 23.5149 12.1317 23.4 12.1333H2.60002ZM2.60002 18.2C2.48517 18.1984 2.37115 18.2196 2.26458 18.2624C2.15801 18.3052 2.06101 18.3688 1.97922 18.4495C1.89744 18.5301 1.83249 18.6262 1.78816 18.7321C1.74384 18.8381 1.72101 18.9518 1.72101 19.0667C1.72101 19.1815 1.74384 19.2952 1.78816 19.4012C1.83249 19.5071 1.89744 19.6032 1.97922 19.6839C2.06101 19.7645 2.15801 19.8281 2.26458 19.8709C2.37115 19.9137 2.48517 19.9349 2.60002 19.9333H23.4C23.5149 19.9349 23.6289 19.9137 23.7355 19.8709C23.842 19.8281 23.939 19.7645 24.0208 19.6839C24.1026 19.6032 24.1675 19.5071 24.2119 19.4012C24.2562 19.2952 24.279 19.1815 24.279 19.0667C24.279 18.9518 24.2562 18.8381 24.2119 18.7321C24.1675 18.6262 24.1026 18.5301 24.0208 18.4495C23.939 18.3688 23.842 18.3052 23.7355 18.2624C23.6289 18.2196 23.5149 18.1984 23.4 18.2H2.60002Z" />
</svg>