<svg viewBox="0 0 24 24"><path d="m19.51 4-3.08.47a.42.42 0 0 0-.24.72l.71.71-2.59 2.6-.76-.72a.85.85 0 0 0-1.18.03L9.5 10.75l-.66-.66a.85.85 0 0 0-1.2-.01l-3.38 3.31a.85.85 0 1 0 1.19 1.21l2.78-2.73.68.68a.85.85 0 0 0 1.2 0l2.9-2.97.74.7a.85.85 0 0 0 1.18-.01L18.1 7.1l.71.7c.25.25.67.12.72-.23L20 4.5A.42.42 0 0 0 19.5 4Zm-1.13 6.67a.85.85 0 0 0-.84.86v7.61a.85.85 0 1 0 1.7 0v-7.6a.85.85 0 0 0-.86-.87Zm-3.39 1.7a.85.85 0 0 0-.83.85v5.92a.85.85 0 1 0 1.7 0v-5.92a.85.85 0 0 0-.87-.86Zm-3.38 1.69a.85.85 0 0 0-.83.85v4.23a.85.85 0 1 0 1.69 0v-4.23a.84.84 0 0 0-.86-.85Zm-3.39 1.69a.85.85 0 0 0-.83.86v2.53a.85.85 0 1 0 1.7 0V16.6a.85.85 0 0 0-.87-.85Zm-3.38 1.69a.85.85 0 0 0-.83.86v.84a.85.85 0 1 0 1.69 0v-.84a.85.85 0 0 0-.86-.86Z"/></svg>